<?xml version="1.0" encoding="UTF-8"?>
<svg id="_图层_1" data-name="图层 1" xmlns="http://www.w3.org/2000/svg" viewBox="0 0 1129.12 325.5">
  <rect x="21.81" y="43" width="29" height="239"/>
  <rect x="145.81" y="43" width="29" height="239"/>
  <path d="M415.81,275h29V113c-3.58-2.83-6.58-5.83-9-9-2.42-3.17-4.25-6.5-5.5-10-1.25,3.5-3.08,6.83-5.5,10-2.42,3.17-5.42,6.17-9,9v162Z"/>
  <rect x="583.81" y="41" width="29" height="113"/>
  <rect x="597.81" y="139" width="125" height="30"/>
  <rect x="583.81" y="28" width="139" height="30"/>
  <rect x="853.81" y="22" width="239" height="30"/>
  <rect x="597.81" y="269" width="125" height="30"/>
  <rect x="707.81" y="165" width="29" height="128"/>
  <rect x="958.81" y="45" width="29" height="254"/>
  <rect x="269.81" y="45" width="29" height="239"/>
  <path d="M21.81,62H298.81v-16.5c-.5-5.42-2.17-9.58-5-12.5s-6.83-4.58-12-5H21.81V62Z"/>
  <path d="M0,36.06c9.7,1.32,17.55,4.99,23.56,11s10.18,14.49,12.5,25.44c2.61-10.95,6.93-19.43,12.94-25.44s13.72-9.68,23.12-11c-9.41-1.7-17.11-5.55-23.12-11.56-6.01-6.01-10.32-14.18-12.94-24.5-2.32,10.32-6.49,18.49-12.5,24.5S9.7,34.36,0,36.06Z"/>
  <path d="M163.81,227c-1.71,1.71-2.68,3.51-2.93,5.41-.19,1.51,.08,3.09,.82,4.72,4.51-7.96,6.41-12.19,5.69-12.7-.4-.28-1.59,.58-3.58,2.57Zm-5.6,8.54c-.35,.27,.27,1.76,1.85,4.46,.47-.81,.91-1.58,1.34-2.33-1.82-1.67-2.88-2.38-3.19-2.14Zm4.45,3.33c.84,1.32,1.98,2.68,3.41,4.08-.27-.73-1.02-1.71-2.26-2.94-.4-.4-.79-.78-1.15-1.13Zm-.95-1.74c-.1,.18-.21,.36-.31,.55,.39,.35,.81,.75,1.26,1.19-.37-.59-.69-1.17-.95-1.74Zm-14.15,2.87c6.04,6.67,11.08,12.68,15.12,18.01,3.03-2.97,6.47-6.14,10.32-9.51-2.79-1.91-5.1-3.76-6.93-5.56,.14,.39,.15,.7,.02,.94-.8,1.53-6.98,.23-18.53-3.89Zm15.12,18.01c-13.33,13.08-18.7,22.28-16.11,27.6,.25,.52,.58,1,.99,1.45,5.5,6.04,9.67,14.52,12.5,25.44,2.61-10.95,6.93-19.43,12.94-25.44,4.43-4.43,.99-14.11-10.32-29.05Z"/>
  <path d="M248,282.06c9.7,1.32,17.55,4.99,23.56,11,6.01,6.01,10.18,14.49,12.5,25.44,2.61-10.95,6.93-19.43,12.94-25.44,6.01-6.01,13.72-9.68,23.12-11-9.41-1.7-17.11-5.55-23.12-11.56s-10.32-14.18-12.94-24.5c-2.32,10.32-6.49,18.49-12.5,24.5s-13.86,9.86-23.56,11.56Z"/>
  <path d="M394,36.06c9.7,1.32,17.55,4.99,23.56,11s10.18,14.49,12.5,25.44c2.61-10.95,6.93-19.43,12.94-25.44s13.72-9.68,23.12-11c-9.41-1.7-17.11-5.55-23.12-11.56C436.99,18.49,432.68,10.32,430.06,0c-2.32,10.32-6.49,18.49-12.5,24.5s-13.86,9.86-23.56,11.56Z"/>
  <path d="M562,36.06c9.7,1.32,17.55,4.99,23.56,11s10.18,14.49,12.5,25.44c2.61-10.95,6.93-19.43,12.94-25.44,6.01-6.01,13.72-9.68,23.12-11-9.41-1.7-17.11-5.55-23.12-11.56C604.99,18.49,600.68,10.32,598.06,0c-2.32,10.32-6.49,18.49-12.5,24.5s-13.86,9.86-23.56,11.56Z"/>
  <path d="M394,282.06c9.7,1.32,17.55,4.99,23.56,11,6.01,6.01,10.18,14.49,12.5,25.44,2.61-10.95,6.93-19.43,12.94-25.44s13.72-9.68,23.12-11c-9.41-1.7-17.11-5.55-23.12-11.56s-10.32-14.18-12.94-24.5c-2.32,10.32-6.49,18.49-12.5,24.5s-13.86,9.86-23.56,11.56Z"/>
  <path d="M686,284.06c9.7,1.32,17.55,4.99,23.56,11,6.01,6.01,10.18,14.49,12.5,25.44,2.61-10.95,6.93-19.43,12.94-25.44s13.72-9.68,23.12-11c-9.41-1.7-17.11-5.55-23.12-11.56s-10.32-14.18-12.94-24.5c-2.32,10.32-6.49,18.49-12.5,24.5s-13.86,9.86-23.56,11.56Z"/>
  <path d="M937,289.06c9.7,1.32,17.55,4.99,23.56,11,6.01,6.01,10.18,14.49,12.5,25.44,2.61-10.95,6.93-19.43,12.94-25.44s13.72-9.68,23.12-11c-9.41-1.7-17.11-5.55-23.12-11.56s-10.32-14.18-12.94-24.5c-2.32,10.32-6.49,18.49-12.5,24.5s-13.86,9.86-23.56,11.56Z"/>
  <path d="M823,37.06c9.7,1.32,17.55,4.99,23.56,11s10.18,14.49,12.5,25.44c2.61-10.95,6.93-19.43,12.94-25.44,6.01-6.01,13.72-9.68,23.12-11-9.41-1.7-17.11-5.55-23.12-11.56-6.01-6.01-10.32-14.18-12.94-24.5-2.32,10.32-6.49,18.49-12.5,24.5s-13.86,9.86-23.56,11.56Z"/>
  <path d="M1057,37.06c9.7,1.32,17.55,4.99,23.56,11s10.18,14.49,12.5,25.44c2.61-10.95,6.93-19.43,12.94-25.44s13.72-9.68,23.12-11c-9.41-1.7-17.11-5.55-23.12-11.56-6.01-6.01-10.32-14.18-12.94-24.5-2.32,10.32-6.49,18.49-12.5,24.5s-13.86,9.86-23.56,11.56Z"/>
  <path d="M561.81,283.34c9.7,1.32,17.55,4.99,23.56,11,3.01,3.01,7.48,4.56,13.44,4.66,5.4-4.15,17.67-5.71,36.81-4.66-4.2-4.41-5.83-7.84-4.9-10.31,.59-1.57,2.23-2.75,4.9-3.53-15.31-8.08-27.58-11.91-36.81-11.5-7.46,.35-11.94,1.27-13.44,2.78-6.01,6.01-13.86,9.86-23.56,11.56Z"/>
  <path d="M758.54,43.41c-9.7-1.32-17.55-4.99-23.56-11-3.01-3.01-7.48-4.47-13.44-4.41-5.4,4.15-17.67,5.62-36.81,4.41,4.2,4.41,5.83,7.84,4.9,10.31-.59,1.57-2.23,2.75-4.9,3.53,15.31,8.08,27.58,12,36.81,11.76,7.46-.52,11.94-1.53,13.44-3.03,6.01-6.01,13.86-9.86,23.56-11.56Z"/>
  <path d="M687,156.06c9.7,1.32,17.55,4.99,23.56,11,6.01,6.01,10.18,14.49,12.5,25.44,2.61-10.95,6.93-19.43,12.94-25.44,6.01-6.01,13.72-9.68,23.12-11-9.41-1.7-17.11-5.55-23.12-11.56s-10.32-14.18-12.94-24.5c-2.32,10.32-6.49,18.49-12.5,24.5s-13.86,9.86-23.56,11.56Z"/>
  <path d="M562,154.06c9.7,1.32,17.55,4.99,23.56,11,6.01,6.01,10.18,14.49,12.5,25.44,2.61-10.95,6.93-19.43,12.94-25.44,6.01-6.01,13.72-9.68,23.12-11-9.41-1.7-17.11-5.55-23.12-11.56s-10.32-14.18-12.94-24.5c-2.32,10.32-6.49,18.49-12.5,24.5s-13.86,9.86-23.56,11.56Z"/>
  <path d="M0,276.06c9.7,1.32,17.55,4.99,23.56,11,6.01,6.01,10.18,14.49,12.5,25.44,2.61-10.95,6.93-19.43,12.94-25.44s13.72-9.68,23.12-11c-9.41-1.7-17.11-5.55-23.12-11.56s-10.32-14.18-12.94-24.5c-2.32,10.32-6.49,18.49-12.5,24.5s-13.86,9.86-23.56,11.56Z"/>
  <path d="M46.81,58v8h4c0-1.33,.33-2.33,1-3s1.67-1,3-1v-4h-8Z"/>
  <path d="M170.81,58v8h4c0-1.33,.33-2.33,1-3s1.67-1,3-1v-4h-8Z"/>
  <path d="M608.81,143h8v-4c-1.33,0-2.33-.33-3-1s-1-1.67-1-3h-4v8Z"/>
  <path d="M608.81,54v8h4c0-1.33,.33-2.33,1-3,.67-.67,1.67-1,3-1v-4h-8Z"/>
  <path d="M711.81,273v-8h-4c0,1.33-.33,2.33-1,3s-1.67,1-3,1v4h8Z"/>
  <path d="M711.81,165h-8v4c1.33,0,2.33,.33,3,1s1,1.67,1,3h4v-8Z"/>
  <path d="M962.81,48h-8v4c1.33,0,2.33,.33,3,1s1,1.67,1,3h4v-8Z"/>
  <path d="M983.81,48v8h4c0-1.33,.33-2.33,1-3s1.67-1,3-1v-4h-8Z"/>
  <path d="M149.81,58h-8v4c1.33,0,2.33,.33,3,1s1,1.67,1,3h4v-8Z"/>
  <path d="M273.81,58h-8v4c1.33,0,2.33,.33,3,1s1,1.67,1,3h4v-8Z"/>
</svg>